<?xml version="1.0" encoding="utf-8"?>
<!-- Generator: Adobe Illustrator 19.0.0, SVG Export Plug-In . SVG Version: 6.00 Build 0)  -->
<svg version="1.1" id="Layer_1" xmlns="http://www.w3.org/2000/svg" xmlns:xlink="http://www.w3.org/1999/xlink" x="0px" y="0px"
	 viewBox="0 0 579.7 318.7" style="enable-background:new 0 0 579.7 318.7;" xml:space="preserve">
<style type="text/css">
	.st0{fill:#3D3D3D;}
	.st1{fill:#630A21;}
	.st2{fill:#8C1730;}
	.st3{fill:#BB1F3D;}
</style>
<g id="XMLID_1_">
	<g id="XMLID_4_">
		<path id="XMLID_132_" class="st0" d="M336.4,70.7l42.4-71h5.5l-45.6,75v46h-4.5v-46l-45.6-75h6L336.4,70.7z"/>
		<path id="XMLID_134_" class="st0" d="M460,84.6h-59.3l-13.5,36.1h-4.9l45.3-121h5.5l45.3,121h-4.9L460,84.6z M402.4,80.1h55.9
			l-27.9-75L402.4,80.1z"/>
		<path id="XMLID_137_" class="st0" d="M570.3,91.8c0-5.2-1.2-9.5-3.6-13.1s-6.2-6.7-11.4-9.5c-5.2-2.7-13-5.6-23.5-8.4
			c-10.5-2.9-18.3-5.8-23.6-8.7c-5.2-2.9-9.1-6.3-11.5-10.2c-2.4-3.9-3.7-8.6-3.7-14.1c0-8.8,3.7-15.9,11.1-21.4
			c7.4-5.5,17.1-8.2,29-8.2c7.8,0,14.7,1.5,20.9,4.5c6.2,3,11,7.3,14.3,12.7c3.4,5.5,5.1,11.6,5.1,18.5h-4.5c0-9-3.3-16.5-10-22.4
			s-15.3-8.9-25.8-8.9c-10.6,0-19.2,2.4-25.8,7.1c-6.6,4.7-9.8,10.7-9.8,17.8c0,7.3,2.9,13.1,8.6,17.5c5.7,4.4,15.1,8.4,28.3,11.8
			s22.7,7.4,28.8,11.8c7.8,5.7,11.6,13.4,11.6,22.9c0,6.1-1.7,11.5-5.2,16.2c-3.4,4.7-8.3,8.3-14.6,10.8c-6.3,2.5-13.4,3.8-21.3,3.8
			c-8.8,0-16.6-1.5-23.6-4.4s-12.2-7-15.7-12.4c-3.5-5.4-5.3-11.7-5.3-19h4.5c0,9.9,3.7,17.6,11.1,23.1c7.4,5.5,17.1,8.2,29,8.2
			c10.6,0,19.3-2.4,26.2-7.3C566.9,105.8,570.3,99.5,570.3,91.8z"/>
		<path id="XMLID_139_" class="st0" d="M374.9,253.3c0-5.2-1.2-9.5-3.6-13.1s-6.2-6.7-11.4-9.5c-5.2-2.7-13-5.6-23.5-8.4
			c-10.5-2.9-18.3-5.8-23.6-8.7c-5.2-2.9-9.1-6.3-11.5-10.2c-2.4-3.9-3.7-8.6-3.7-14.1c0-8.8,3.7-15.9,11.1-21.4
			c7.4-5.5,17.1-8.2,29-8.2c7.8,0,14.7,1.5,20.9,4.5c6.2,3,11,7.3,14.3,12.7c3.4,5.5,5.1,11.6,5.1,18.5h-4.5c0-9-3.3-16.5-10-22.4
			c-6.6-5.9-15.3-8.9-25.8-8.9c-10.6,0-19.2,2.4-25.8,7.1c-6.6,4.7-9.8,10.7-9.8,17.8c0,7.3,2.9,13.1,8.6,17.5
			c5.7,4.4,15.1,8.4,28.3,11.8c13.1,3.4,22.7,7.4,28.8,11.8c7.8,5.7,11.6,13.4,11.6,22.9c0,6.1-1.7,11.5-5.2,16.2
			c-3.4,4.7-8.3,8.3-14.6,10.8c-6.3,2.5-13.4,3.8-21.3,3.8c-8.8,0-16.6-1.5-23.6-4.4c-7-2.9-12.2-7-15.7-12.4
			c-3.5-5.4-5.3-11.7-5.3-19h4.5c0,9.9,3.7,17.6,11.1,23.1c7.4,5.5,17.1,8.2,29,8.2c10.6,0,19.3-2.4,26.2-7.3
			C371.5,267.4,374.9,261.1,374.9,253.3z"/>
		<path id="XMLID_141_" class="st0" d="M431.3,282.3h-4.5v-121h4.5V282.3z"/>
		<path id="XMLID_143_" class="st0" d="M534.3,230.5h-42v51.8h-4.5v-121h38.6c12.1,0,21.8,3.1,29,9.4c7.2,6.3,10.8,14.8,10.8,25.5
			c0,8.3-2.6,15.5-7.7,21.6c-5.1,6.2-11.6,10-19.6,11.5l32.3,51.8v1.2h-4.7L534.3,230.5z M492.4,226.1h38.1c9.3,0,16.8-2.8,22.6-8.5
			c5.7-5.7,8.6-12.8,8.6-21.4c0-9.4-3.2-16.8-9.5-22.3c-6.3-5.4-15-8.1-26.1-8.1h-33.7V226.1z"/>
	</g>
	<g id="XMLID_40_">
		<path id="XMLID_47_" class="st0" d="M244.8,306.3l3.7-8h4l-5.8,11.3v6.4H243v-6.4l-5.8-11.3h4L244.8,306.3z"/>
		<path id="XMLID_88_" class="st0" d="M270.3,307.6c0,1.7-0.3,3.3-0.9,4.6s-1.5,2.3-2.6,3s-2.5,1.1-3.9,1.1c-1.5,0-2.8-0.4-3.9-1.1
			c-1.2-0.7-2-1.7-2.7-3c-0.6-1.3-1-2.8-1-4.5v-0.9c0-1.7,0.3-3.3,0.9-4.6c0.6-1.3,1.5-2.3,2.7-3.1c1.1-0.7,2.5-1.1,3.9-1.1
			c1.5,0,2.8,0.4,3.9,1.1c1.1,0.7,2,1.7,2.7,3.1c0.6,1.3,0.9,2.9,0.9,4.6V307.6z M266.6,306.8c0-1.9-0.3-3.3-1-4.2
			c-0.7-1-1.6-1.4-2.8-1.4c-1.2,0-2.2,0.5-2.8,1.4s-1,2.3-1,4.2v0.9c0,1.8,0.3,3.2,1,4.2s1.6,1.5,2.9,1.5c1.2,0,2.2-0.5,2.8-1.4
			c0.7-1,1-2.4,1-4.2V306.8z"/>
		<path id="XMLID_91_" class="st0" d="M288.3,298.3V310c0,1.9-0.6,3.5-1.8,4.6s-2.9,1.7-5,1.7c-2.1,0-3.7-0.5-4.9-1.6
			s-1.8-2.6-1.9-4.5v-11.8h3.6V310c0,1.2,0.3,2,0.8,2.5c0.6,0.5,1.3,0.8,2.3,0.8c2.1,0,3.1-1.1,3.1-3.2v-11.8H288.3z"/>
		<path id="XMLID_93_" class="st0" d="M299.9,309.6H297v6.5h-3.6v-17.7h6.6c2.1,0,3.7,0.5,4.8,1.4s1.7,2.3,1.7,4
			c0,1.2-0.3,2.2-0.8,3c-0.5,0.8-1.3,1.5-2.4,1.9l3.8,7.2v0.2h-3.9L299.9,309.6z M297,306.6h2.9c0.9,0,1.6-0.2,2.1-0.7
			c0.5-0.5,0.8-1.1,0.8-1.9c0-0.8-0.2-1.5-0.7-2c-0.5-0.5-1.2-0.7-2.2-0.7H297V306.6z"/>
		<path id="XMLID_96_" class="st0" d="M333.3,310.1c-0.1,1.9-0.8,3.4-2.1,4.5c-1.3,1.1-2.9,1.6-5,1.6c-2.3,0-4.1-0.8-5.4-2.3
			c-1.3-1.5-2-3.6-2-6.3v-1.1c0-1.7,0.3-3.2,0.9-4.5c0.6-1.3,1.5-2.3,2.6-3s2.4-1,3.9-1c2,0,3.7,0.5,4.9,1.6c1.2,1.1,2,2.6,2.2,4.6
			h-3.6c-0.1-1.1-0.4-2-1-2.5c-0.5-0.5-1.4-0.8-2.5-0.8c-1.2,0-2.1,0.4-2.7,1.3c-0.6,0.9-0.9,2.2-0.9,4.1v1.3c0,1.9,0.3,3.3,0.9,4.2
			s1.5,1.3,2.7,1.3c1.1,0,2-0.3,2.5-0.8c0.6-0.5,0.9-1.3,1-2.4H333.3z"/>
		<path id="XMLID_98_" class="st0" d="M352.2,307.6c0,1.7-0.3,3.3-0.9,4.6c-0.6,1.3-1.5,2.3-2.6,3s-2.5,1.1-3.9,1.1
			c-1.5,0-2.8-0.4-3.9-1.1c-1.2-0.7-2-1.7-2.7-3s-1-2.8-1-4.5v-0.9c0-1.7,0.3-3.3,0.9-4.6c0.6-1.3,1.5-2.3,2.7-3.1
			c1.1-0.7,2.5-1.1,3.9-1.1c1.5,0,2.8,0.4,3.9,1.1c1.1,0.7,2,1.7,2.7,3.1c0.6,1.3,0.9,2.9,0.9,4.6V307.6z M348.5,306.8
			c0-1.9-0.3-3.3-1-4.2s-1.6-1.4-2.8-1.4c-1.2,0-2.2,0.5-2.8,1.4c-0.7,1-1,2.3-1,4.2v0.9c0,1.8,0.3,3.2,1,4.2s1.6,1.5,2.9,1.5
			c1.2,0,2.2-0.5,2.8-1.4c0.7-1,1-2.4,1-4.2V306.8z"/>
		<path id="XMLID_101_" class="st0" d="M363.4,309.6h-2.9v6.5h-3.6v-17.7h6.6c2.1,0,3.7,0.5,4.8,1.4s1.7,2.3,1.7,4
			c0,1.2-0.3,2.2-0.8,3c-0.5,0.8-1.3,1.5-2.4,1.9l3.8,7.2v0.2h-3.9L363.4,309.6z M360.5,306.6h2.9c0.9,0,1.6-0.2,2.1-0.7
			c0.5-0.5,0.8-1.1,0.8-1.9c0-0.8-0.2-1.5-0.7-2c-0.5-0.5-1.2-0.7-2.2-0.7h-2.9V306.6z"/>
		<path id="XMLID_104_" class="st0" d="M378.4,309.8v6.2h-3.6v-17.7h6.9c1.3,0,2.5,0.2,3.5,0.7c1,0.5,1.8,1.2,2.3,2.1
			c0.5,0.9,0.8,1.9,0.8,3.1c0,1.7-0.6,3.1-1.8,4.1c-1.2,1-2.8,1.5-4.9,1.5H378.4z M378.4,306.8h3.3c1,0,1.7-0.2,2.2-0.7
			s0.8-1.1,0.8-1.9c0-0.9-0.3-1.6-0.8-2.1c-0.5-0.5-1.2-0.8-2.1-0.8h-3.3V306.8z"/>
		<path id="XMLID_107_" class="st0" d="M407.4,307.6c0,1.7-0.3,3.3-0.9,4.6c-0.6,1.3-1.5,2.3-2.6,3s-2.5,1.1-3.9,1.1
			c-1.5,0-2.8-0.4-3.9-1.1c-1.2-0.7-2-1.7-2.7-3s-1-2.8-1-4.5v-0.9c0-1.7,0.3-3.3,0.9-4.6c0.6-1.3,1.5-2.3,2.7-3.1
			c1.1-0.7,2.5-1.1,3.9-1.1c1.5,0,2.8,0.4,3.9,1.1c1.1,0.7,2,1.7,2.7,3.1c0.6,1.3,0.9,2.9,0.9,4.6V307.6z M403.7,306.8
			c0-1.9-0.3-3.3-1-4.2s-1.6-1.4-2.8-1.4c-1.2,0-2.2,0.5-2.8,1.4c-0.7,1-1,2.3-1,4.2v0.9c0,1.8,0.3,3.2,1,4.2s1.6,1.5,2.9,1.5
			c1.2,0,2.2-0.5,2.8-1.4c0.7-1,1-2.4,1-4.2V306.8z"/>
		<path id="XMLID_110_" class="st0" d="M418.6,309.6h-2.9v6.5H412v-17.7h6.6c2.1,0,3.7,0.5,4.8,1.4s1.7,2.3,1.7,4
			c0,1.2-0.3,2.2-0.8,3c-0.5,0.8-1.3,1.5-2.4,1.9l3.8,7.2v0.2h-3.9L418.6,309.6z M415.7,306.6h2.9c0.9,0,1.6-0.2,2.1-0.7
			c0.5-0.5,0.8-1.1,0.8-1.9c0-0.8-0.2-1.5-0.7-2c-0.5-0.5-1.2-0.7-2.2-0.7h-2.9V306.6z"/>
		<path id="XMLID_113_" class="st0" d="M439.9,312.4h-6.4l-1.2,3.6h-3.9l6.6-17.7h3.4L445,316h-3.9L439.9,312.4z M434.5,309.4h4.4
			l-2.2-6.6L434.5,309.4z"/>
		<path id="XMLID_116_" class="st0" d="M460.6,301.3h-5.4V316h-3.6v-14.8h-5.4v-3h14.4V301.3z"/>
		<path id="XMLID_118_" class="st0" d="M475.3,308.4h-7v4.7h8.2v2.9h-11.9v-17.7h11.8v3h-8.2v4.2h7V308.4z"/>
		<path id="XMLID_120_" class="st0" d="M493.6,298.3l4.5,12.8l4.5-12.8h4.8V316h-3.7v-4.8l0.4-8.4l-4.8,13.2h-2.5l-4.8-13.2l0.4,8.3
			v4.8h-3.6v-17.7H493.6z"/>
		<path id="XMLID_122_" class="st0" d="M527.2,307.6c0,1.7-0.3,3.3-0.9,4.6c-0.6,1.3-1.5,2.3-2.6,3s-2.5,1.1-3.9,1.1
			c-1.5,0-2.8-0.4-3.9-1.1c-1.2-0.7-2-1.7-2.7-3s-1-2.8-1-4.5v-0.9c0-1.7,0.3-3.3,0.9-4.6c0.6-1.3,1.5-2.3,2.7-3.1
			c1.1-0.7,2.5-1.1,3.9-1.1c1.5,0,2.8,0.4,3.9,1.1c1.1,0.7,2,1.7,2.7,3.1c0.6,1.3,0.9,2.9,0.9,4.6V307.6z M523.5,306.8
			c0-1.9-0.3-3.3-1-4.2s-1.6-1.4-2.8-1.4c-1.2,0-2.2,0.5-2.8,1.4c-0.7,1-1,2.3-1,4.2v0.9c0,1.8,0.3,3.2,1,4.2s1.6,1.5,2.9,1.5
			c1.2,0,2.2-0.5,2.8-1.4c0.7-1,1-2.4,1-4.2V306.8z"/>
		<path id="XMLID_125_" class="st0" d="M544.1,301.3h-5.4V316h-3.6v-14.8h-5.4v-3h14.4V301.3z"/>
		<path id="XMLID_127_" class="st0" d="M561.7,301.3h-5.4V316h-3.6v-14.8h-5.4v-3h14.4V301.3z"/>
		<path id="XMLID_129_" class="st0" d="M580,307.6c0,1.7-0.3,3.3-0.9,4.6c-0.6,1.3-1.5,2.3-2.6,3s-2.5,1.1-3.9,1.1
			c-1.5,0-2.8-0.4-3.9-1.1c-1.2-0.7-2-1.7-2.7-3s-1-2.8-1-4.5v-0.9c0-1.7,0.3-3.3,0.9-4.6c0.6-1.3,1.5-2.3,2.7-3.1
			c1.1-0.7,2.5-1.1,3.9-1.1c1.5,0,2.8,0.4,3.9,1.1c1.1,0.7,2,1.7,2.7,3.1c0.6,1.3,0.9,2.9,0.9,4.6V307.6z M576.3,306.8
			c0-1.9-0.3-3.3-1-4.2s-1.6-1.4-2.8-1.4c-1.2,0-2.2,0.5-2.8,1.4c-0.7,1-1,2.3-1,4.2v0.9c0,1.8,0.3,3.2,1,4.2s1.6,1.5,2.9,1.5
			c1.2,0,2.2-0.5,2.8-1.4c0.7-1,1-2.4,1-4.2V306.8z"/>
	</g>
	<g id="XMLID_11_">
		<path class="st1" d="M81.4,309.1c-2.1,5.3,0.8,9.6,6.6,9.6h92.7c5.7,0,11.8-4.5,13.5-9.9l57.4-184.7c1.7-5.5-1.6-9.9-7.3-9.9H169
			c-5.7,0-12.1,4.3-14.2,9.6L81.4,309.1z"/>
	</g>
	<g id="XMLID_8_">
		<path class="st2" d="M250.2,9.6c2.1-5.3-0.8-9.6-6.6-9.6h-92.7c-5.7,0-11.8,4.5-13.5,9.9L80,194.6c-1.7,5.5,1.6,9.9,7.3,9.9h75.3
			c5.7,0,12.1-4.3,14.2-9.6L250.2,9.6z"/>
	</g>
	<g id="XMLID_7_">
		<path class="st3" d="M0.7,9.6C-1.4,4.3,1.5,0,7.2,0H100c5.7,0,11.8,4.5,13.5,9.9l57.4,184.7c1.7,5.5-1.6,9.9-7.3,9.9H88.3
			c-5.7,0-12.1-4.3-14.2-9.6L0.7,9.6z"/>
	</g>
</g>
</svg>
